<svg width="144" height="45" viewBox="0 0 144 45" fill="none" xmlns="http://www.w3.org/2000/svg">
<path d="M143.707 37.7071C144.098 37.3166 144.098 36.6834 143.707 36.2929L137.343 29.9289C136.953 29.5384 136.319 29.5384 135.929 29.9289C135.538 30.3195 135.538 30.9526 135.929 31.3431L141.586 37L135.929 42.6569C135.538 43.0474 135.538 43.6805 135.929 44.0711C136.319 44.4616 136.953 44.4616 137.343 44.0711L143.707 37.7071ZM0 0V33H2V0H0ZM5 38H143V36H5V38ZM0 33C0 35.7614 2.23858 38 5 38V36C3.34315 36 2 34.6569 2 33H0Z" fill="white"/>
</svg>
